<?xml version="1.0" encoding="UTF-8" standalone="no"?>
<!-- Created with Inkscape (http://www.inkscape.org/) -->

<svg
   xmlns:dc="http://purl.org/dc/elements/1.1/"
   xmlns:cc="http://creativecommons.org/ns#"
   xmlns:rdf="http://www.w3.org/1999/02/22-rdf-syntax-ns#"
   xmlns:svg="http://www.w3.org/2000/svg"
   xmlns="http://www.w3.org/2000/svg"
   xmlns:sodipodi="http://sodipodi.sourceforge.net/DTD/sodipodi-0.dtd"
   xmlns:inkscape="http://www.inkscape.org/namespaces/inkscape"
   width="24"
   height="34"
   viewBox="0 0 24 34"
   version="1.1"
   id="svg8"
   inkscape:version="0.92.4 (5da689c313, 2019-01-14)"
   sodipodi:docname="ant_i_svg.svg">
  <defs
     id="defs2" />
  <sodipodi:namedview
     id="base"
     pagecolor="#ffffff"
     bordercolor="#666666"
     borderopacity="1.0"
     inkscape:pageopacity="0.0"
     inkscape:pageshadow="2"
     inkscape:zoom="22.627417"
     inkscape:cx="16.782076"
     inkscape:cy="16.204522"
     inkscape:document-units="px"
     inkscape:current-layer="layer1"
     showgrid="true"
     inkscape:window-width="2560"
     inkscape:window-height="1377"
     inkscape:window-x="-8"
     inkscape:window-y="-8"
     inkscape:window-maximized="1"
     fit-margin-top="0"
     fit-margin-left="0"
     fit-margin-right="0"
     fit-margin-bottom="0"
     inkscape:pagecheckerboard="false"
     units="px"
     scale-x="1" />
  <metadata
     id="metadata5">
    <rdf:RDF>
      <cc:Work
         rdf:about="">
        <dc:format>image/svg+xml</dc:format>
        <dc:type
           rdf:resource="http://purl.org/dc/dcmitype/StillImage" />
        <dc:title></dc:title>
      </cc:Work>
    </rdf:RDF>
  </metadata>
  <g
     inkscape:label="Layer 1"
     inkscape:groupmode="layer"
     id="layer1"
     transform="translate(-88.87054,-162.53213)">
    <path
       style="fill:#000000;stroke:none;stroke-width:0.32798693"
       d="m 95.622276,163.1294 v 5.26257 l 2.944768,2.07434 -0.97677,1.07966 0.0045,4.21225 2.291972,1.56002 v 0.49978 l -1.099034,0.42216 -3.162998,-2.15442 -0.01589,-2.62243 -4.904581,-3.26317 v 0.74725 l 4.264005,3.04289 v 2.52634 l 3.607365,2.39706 v 1.16695 l -1.563396,0.8346 -3.51128,-2.36551 h -4.476611 l 0.40638,0.6575 3.733553,0.002 3.913626,2.60228 1.49741,-0.97774 v 2.38976 l -1.461511,-0.97046 -4.101838,2.69278 -0.01362,2.73451 -2.294165,1.4193 v 0.60411 h 0.502454 l 2.448252,-1.66435 v -2.5227 l 3.497295,-2.33638 1.52727,1.08692 1.527258,1.08449 -3.599373,2.38974 v 5.41105 l 4.101843,2.78231 h 0.16258 0.16008 l 4.1018,-2.78231 v -5.41105 l -3.59934,-2.38974 1.52727,-1.08449 1.52727,-1.08692 3.49729,2.33638 v 2.5227 l 2.4483,1.66435 h 0.50245 v -0.60411 l -2.29416,-1.4193 -0.0136,-2.73451 -4.10179,-2.69278 -1.46151,0.97046 v -2.38976 l 1.49741,0.97774 3.91362,-2.60228 3.73354,-0.002 0.40638,-0.6575 h -4.47636 l -3.51131,2.36551 -1.56342,-0.8346 v -1.16695 l 3.60738,-2.39706 v -2.52634 l 4.26396,-3.04289 v -0.74725 l -4.90458,3.26317 -0.0159,2.62243 -3.16296,2.15442 -1.09904,-0.42216 v -0.49978 l 2.29198,-1.56002 0.005,-4.21225 -0.97677,-1.07966 2.94473,-2.07434 v -5.26257 h -0.65627 v 4.88846 l -3.01684,2.07677 -1.57337,-0.84187 -1.57554,0.84187 -3.016767,-2.07677 v -4.88846 z"
       id="path828"
       inkscape:connector-curvature="0" />
  </g>
</svg>
